<?xml version="1.0" encoding="UTF-8"?>
<svg id="_圖層_1" data-name="圖層 1" xmlns="http://www.w3.org/2000/svg" viewBox="0 0 177.51 59.78">
  <defs>
    <style>
      .cls-1 {
        fill: #231815;
        stroke-width: 0px;
      }
    </style>
  </defs>
  <g>
    <polygon class="cls-1" points="17.42 26.91 17.42 21.71 41.92 21.71 41.92 27.65 47.17 27.65 47.17 19.13 44.54 16.35 14.79 16.35 12.17 19.13 12.17 26.91 17.42 26.91"/>
    <polygon class="cls-1" points="20.07 29.07 33.49 29.07 30.53 34.84 30.16 36.29 30.23 42.44 19.31 42.44 19.31 47.63 32.89 47.63 35.52 44.81 35.42 37 40.35 28.17 38.1 23.98 20.07 23.98 20.07 29.07"/>
    <polyline class="cls-1" points="13.21 38.58 46.86 38.58 46.86 33.02 13.21 33.02"/>
    <polyline class="cls-1" points="26.38 12.91 26.38 19.13 31.62 19.13 31.62 12.91"/>
  </g>
  <g>
    <polygon class="cls-1" points="51.1 56.42 51.1 55.96 3.6 55.96 3.6 8.92 40.88 8.92 50.64 18.07 50.64 56.42 51.1 56.42 51.1 55.96 51.1 56.42 51.56 56.42 51.56 17.67 41.25 7.99 2.67 7.99 2.67 56.88 51.56 56.88 51.56 56.42 51.1 56.42"/>
    <polygon class="cls-1" points="56.96 51.32 56.96 50.86 9.46 50.86 9.46 3.82 46.74 3.82 56.49 12.98 56.49 51.32 56.96 51.32 56.96 50.86 56.96 51.32 57.42 51.32 57.42 12.58 47.11 2.9 8.53 2.9 8.53 51.79 57.42 51.79 57.42 51.32 56.96 51.32"/>
  </g>
  <g>
    <path class="cls-1" d="m60.02,47.48v-4.25h15.1v-3.09h-11.2v-4.17h11.16v-2.43h-2.86v-7.41h-3.55c-.75,3.81-2.77,6.63-6.06,8.45-.28-.44-.75-1-1.41-1.7-.66-.7-1.19-1.2-1.6-1.51,2.47-1.26,4.04-3.01,4.71-5.25h-3.9v-4.05h4.36v-4.05h-3.05v-4.01h17.53v4.01h-2.74v4.05h3.63v4.05h-3.63v6.76h3.32v3.09h11.16v4.17h-11.16v3.09h14.98v4.25h-34.78Zm8.96-25.4h3.24v-4.05h-3.24v4.05Zm12.78,5.83v-13.05h4.21v13.05h-4.21Zm3.47,6.25c-.21-1.26-.66-2.61-1.35-4.05,1.9.08,3.29.09,4.17.04.28-.03.48-.08.58-.17.1-.09.15-.25.15-.48V13.09h4.36v16.48c0,1.11-.13,1.93-.39,2.47-.26.62-.75,1.08-1.47,1.39-1.11.49-3.13.73-6.06.73Z"/>
    <path class="cls-1" d="m99.63,48.68V13.94h33.05v34.75h-4.48v-1.35h-24.32v1.35h-4.25Zm4.25-5.1h24.32v-25.87h-24.32v25.87Zm1.31-14.82v-2.51h8.8v-1.16h-5.68v-6.14h15.4v6.14h-5.87v1.16h9.19v2.51h-21.85Zm1.78,13.55v-12.43h18.11v12.43h-18.11Zm3.51-2.55h10.89v-7.37h-10.89v7.37Zm1.47-16.95h7.91v-1.54h-7.91v1.54Zm.12,15.83v-5.13h7.84v5.13h-7.84Zm2.43-1.93h2.78v-1.24h-2.78v1.24Z"/>
    <path class="cls-1" d="m137.85,47.87l-.97-4.05c1.18-.18,2.96-.48,5.33-.89v-10.27h-4.75v-3.86h4.75v-2.7h-3.28v-1.31l-.35.35c-.31-.49-.72-1.03-1.24-1.62-.57-.59-1.07-1.04-1.51-1.35,2.91-2.55,5.06-5.7,6.45-9.46h3.78c2.14,1.98,3.87,3.9,5.21,5.75v-4.83h11.16v3.32h-2.66v2.05h2.35v3.86c1.24-2.6,2.12-5.97,2.66-10.11l3.86.7c-.21,1.54-.48,3.01-.81,4.4h4.9v3.98h-6.02c-.59,1.78-1.21,3.22-1.85,4.32-.52-.46-1.43-1.04-2.74-1.74v2.28h-2.35v2.05h2.97v3.32h-11.47v-11.81l-1.93,2.09h.12v3.78h-3.47v2.7h4.21v3.86h-4.21v9.61l4.67-.81.23,2.47h1.35v-10.11h18.96v10.11h1.74v3.86h-23.28v-2.2c-3.24.67-7.18,1.43-11.81,2.28Zm.89-6.18c-.08-1.88-.45-4.13-1.12-6.76l2.82-.7c.67,2.24,1.09,4.47,1.27,6.68l-2.97.77Zm2.47-19.38h7.3c-.98-1.7-2.23-3.44-3.74-5.21-1.13,1.98-2.32,3.72-3.55,5.21Zm7.84,18.57l-2.7-.69c.51-1.72.95-3.81,1.31-6.25l3.13.73c-.21.7-.5,1.77-.89,3.22-.39,1.45-.67,2.45-.85,2.99Zm5.52-21.89h2.09v-2.05h-2.09v2.05Zm0,4.9h4.67v-2.12h-4.67v2.12Zm0,4.83h2.09v-2.05h-2.09v2.05Zm1.31,15.21h1.93v-6.49h-1.93v6.49Zm4.75,0h1.97v-6.49h-1.97v6.49Zm3.21-12.51v-3.78h8.41v3.78h-8.41Zm1.54,12.51h2.05v-6.49h-2.05v6.49Z"/>
  </g>
</svg>