<svg width="15" height="18" viewBox="0 0 15 18" fill="none" xmlns="http://www.w3.org/2000/svg">
<path d="M14.0479 0.890313C14.0479 0.858516 14.0479 0.826719 14.0352 0.788563C14.0352 0.756766 14.0224 0.724969 14.0161 0.699532C14.0097 0.667735 13.997 0.642297 13.9906 0.610501C13.9779 0.578704 13.9652 0.553266 13.9525 0.521469C13.9398 0.496032 13.927 0.470594 13.908 0.445157C13.8889 0.419719 13.8698 0.394282 13.8507 0.368844C13.8317 0.343407 13.8126 0.324328 13.7935 0.298891C13.7681 0.273453 13.7426 0.248016 13.7172 0.228938C13.7045 0.216219 13.6917 0.2035 13.679 0.190781C13.6727 0.190781 13.66 0.184422 13.6536 0.178063C13.6282 0.158985 13.5964 0.139906 13.5646 0.120828C13.5391 0.108109 13.5137 0.0953907 13.4882 0.0826719C13.4565 0.0699532 13.431 0.0572344 13.3992 0.050875C13.3674 0.0381563 13.342 0.0317969 13.3102 0.0254375C13.2784 0.0190781 13.253 0.0127188 13.2212 0.0127188C13.1894 0.0127188 13.1576 0.00635938 13.1258 0C13.113 0 13.1067 0 13.094 0H0.960267C0.960267 0 0.947548 0 0.941188 0C0.903032 0 0.864876 0 0.833079 0.0127188C0.807641 0.0127188 0.782204 0.0127188 0.756766 0.0254375C0.724969 0.0317969 0.693173 0.0445157 0.667735 0.050875C0.635938 0.0635938 0.610501 0.0699532 0.578704 0.0826719C0.553266 0.0953907 0.534188 0.108109 0.50875 0.120828C0.476954 0.139906 0.445157 0.158985 0.41336 0.178063C0.41336 0.178063 0.400641 0.178063 0.394282 0.184422C0.375203 0.197141 0.362485 0.20986 0.349766 0.222578C0.324328 0.248016 0.292532 0.267094 0.267094 0.292532C0.248016 0.31161 0.228938 0.337047 0.20986 0.362485C0.190781 0.387922 0.171703 0.41336 0.152625 0.438797C0.133547 0.464235 0.120828 0.489672 0.108109 0.51511C0.0953907 0.540547 0.082672 0.572344 0.0699532 0.597782C0.0572344 0.623219 0.050875 0.655016 0.0445157 0.686813C0.0381563 0.71861 0.0254375 0.744048 0.0190781 0.775844C0.0190781 0.807641 0.0127188 0.845798 0.00635938 0.877595C0.00635938 0.896673 0 0.92211 0 0.941188V16.7061C0 16.7061 0 16.7442 0 16.7633C0 16.7951 0 16.8269 0.0127188 16.8651C0.0127188 16.8969 0.0254375 16.9287 0.0317969 16.9541C0.0381563 16.9859 0.050875 17.0113 0.0572344 17.0431C0.0699532 17.0749 0.082672 17.1004 0.0953907 17.1322C0.108109 17.1576 0.120828 17.183 0.139906 17.2085C0.158985 17.2339 0.178063 17.2594 0.197141 17.2848C0.216219 17.3102 0.235297 17.3293 0.254375 17.3547C0.279813 17.3802 0.30525 17.4056 0.330688 17.4247C0.343407 17.4374 0.356125 17.4501 0.368844 17.4629C0.368844 17.4629 0.381563 17.4629 0.387922 17.4692C0.464235 17.5265 0.540547 17.5646 0.629579 17.5964C0.648657 17.5964 0.661376 17.6091 0.680454 17.6155C0.769485 17.6409 0.858516 17.66 0.947548 17.66H13.0876C13.6154 17.66 14.0415 17.2339 14.0415 16.7061V0.947548C14.0415 0.947548 14.0415 0.909391 14.0415 0.890313H14.0479ZM12.1464 14.474L8.10185 9.00488L12.1464 3.75203V14.474ZM1.91417 3.84107L5.71072 8.97945L1.91417 13.9143V3.84107ZM2.849 1.90145H11.1607L6.91901 7.40868L2.849 1.90145ZM6.88721 10.5756L10.7219 15.7585H2.89988L6.89357 10.5756H6.88721Z" fill="#050101"/>
</svg>
